# xmcd
#
# Track frame offsets:
#	150
#	14905
#	38775
#	55865
#	87507
#	117520
#	132560
#	147595
#	167927
#	186320
#
# Disc length: 2758 seconds
#
# Revision: 1
# Processed by: cddbd v1.5.2PL0 Copyright (c) Steve Scherf et al.
# Submitted via: audiograbber 1.83.01
#
DISCID=9e0ac40a
DTITLE=Memphis P. Tails - Memphis P. Tails
DYEAR=1999
DGENRE=Blues
TTITLE0=I Want To Be Your Only Man
TTITLE1=On Down The Line
TTITLE2=It Ain`t Easy
TTITLE3=Love Don`t Love Nobody
TTITLE4=Pain (don`t come around)
TTITLE5=Low Down Dirty Shame
TTITLE6=White Trash
TTITLE7=John Lee One Time
TTITLE8=She`s Mine
TTITLE9=Mean Woman Blues
EXTD=
EXTT0=
EXTT1=
EXTT2=
EXTT3=
EXTT4=
EXTT5=
EXTT6=
EXTT7=
EXTT8=
EXTT9=
PLAYORDER=
